<svg id="Layer_1" data-name="Layer 1" xmlns="http://www.w3.org/2000/svg" viewBox="0 0 200.51 385.28"><defs><style>.cls-1{fill:#65cbe4;}.cls-2{fill:#fff;}.cls-3{fill:#231f20;}</style></defs><title>Fridgy-Logo-2</title><path class="cls-1" d="M26,0H178.41a22.1,22.1,0,0,1,22.1,22.1V363.18a22.1,22.1,0,0,1-22.1,22.1H30.77a22.1,22.1,0,0,1-22.1-22.1V17.38A17.38,17.38,0,0,1,26,0Z"/><path class="cls-2" d="M19.48,140.7H188.6a2.86,2.86,0,0,1,2.86,2.86v218.9a14.16,14.16,0,0,1-14.16,14.16H31.48a14.16,14.16,0,0,1-14.16-14.16V142.86A2.16,2.16,0,0,1,19.48,140.7Z"/><rect class="cls-2" x="176.07" y="127" width="15.38" height="20.42"/><rect class="cls-2" x="114.01" y="160.65" width="15.38" height="15.38" transform="translate(182.04 26.68) rotate(90)"/><path class="cls-2" d="M28.42,8.27H176.87a14.59,14.59,0,0,1,14.59,14.59V132a0,0,0,0,1,0,0H23.28a6,6,0,0,1-6-6V19.36A11.09,11.09,0,0,1,28.42,8.27Z"/><rect class="cls-3" x="138.03" y="104.54" width="34.49" height="6.05"/><rect class="cls-3" x="138.03" y="162.14" width="34.49" height="6.05"/><path class="cls-2" d="M154.83,141.57a18.86,18.86,0,0,1-3.1,10.42h-14.4a12,12,0,0,1-12-12v-14.4a19.08,19.08,0,0,1,29.5,16Z" transform="translate(-108.01 -19.96)"/><path class="cls-2" d="M143.06,160.67a19.08,19.08,0,1,1-26.4-26.4v14.4a12,12,0,0,0,12,12Z" transform="translate(-108.01 -19.96)"/></svg>