<svg id="Layer_1" data-name="Layer 1" xmlns="http://www.w3.org/2000/svg" viewBox="0 0 426.2 426.2"><defs><style>.cls-1,.cls-3{fill:#fff;}.cls-1{stroke:#fff;stroke-linecap:round;stroke-miterlimit:10;}.cls-2{fill:#65cbe4;}.cls-4{fill:#231f20;}</style></defs><title>fridgy-logo</title><circle class="cls-1" cx="213.1" cy="213.1" r="212.6"/><path class="cls-2" d="M134.55,20.46H286.92A22.1,22.1,0,0,1,309,42.56V383.64a22.1,22.1,0,0,1-22.1,22.1H139.28a22.1,22.1,0,0,1-22.1-22.1V37.83a17.38,17.38,0,0,1,17.38-17.38Z"/><path class="cls-3" d="M135.92,163.32H289.41a2.86,2.86,0,0,1,2.86,2.86v208a14.16,14.16,0,0,1-14.16,14.16H147.92a14.16,14.16,0,0,1-14.16-14.16V165.47A2.16,2.16,0,0,1,135.92,163.32Z"/><rect class="cls-3" x="276.89" y="141.06" width="15.38" height="25.97"/><rect class="cls-3" x="119.96" y="156.87" width="15.38" height="27.27" transform="translate(298.66 43.36) rotate(90)"/><path class="cls-3" d="M142.62,36.34h137.3a12.35,12.35,0,0,1,12.35,12.35V144a2.63,2.63,0,0,1-2.63,2.63h-148a7.89,7.89,0,0,1-7.89-7.89V45.18A8.85,8.85,0,0,1,142.62,36.34Z"/><rect class="cls-4" x="246.54" y="125" width="34.49" height="6.05"/><rect class="cls-4" x="246.54" y="182.59" width="34.49" height="6.05"/><path class="cls-3" d="M142.8,162.69a18.73,18.73,0,0,1-16,9.33c-10.53,0-19.07-9.2-19.07-20.55a21,21,0,0,1,8.65-17.22v15.52c0,7.11,5.4,12.92,12,12.92Z" transform="translate(0.5 0.5)"/></svg>